<mxfile host="app.diagrams.net" modified="2024-01-13T07:00:21.202Z" agent="Mozilla/5.0 (Macintosh; Intel Mac OS X 10_15_7) AppleWebKit/537.36 (KHTML, like Gecko) Chrome/119.0.0.0 Safari/537.36" version="22.1.15" etag="wASKUqWU2KfoFvaDBJB2" type="github">
  <diagram name="페이지-1" id="tohX61GjYwFIoutJTp5W">
    <mxGraphModel>
      <root>
        <mxCell id="0" />
        <mxCell id="1" parent="0" />
      </root>
    </mxGraphModel>
  </diagram>
</mxfile>
